<?xml version="1.0" encoding="utf-8"?>
<!-- Generator: Adobe Illustrator 19.1.0, SVG Export Plug-In . SVG Version: 6.00 Build 0)  -->
<svg version="1.1"
	 id="svg2" inkscape:output_extension="org.inkscape.output.svg.inkscape" sodipodi:docname="William_Hill.svg" inkscape:version="0.46" sodipodi:version="0.32" xmlns:inkscape="http://www.inkscape.org/namespaces/inkscape" xmlns:sodipodi="http://sodipodi.sourceforge.net/DTD/sodipodi-0.dtd" xmlns:svg="http://www.w3.org/2000/svg" xmlns:rdf="http://www.w3.org/1999/02/22-rdf-syntax-ns#" xmlns:dc="http://purl.org/dc/elements/1.1/" xmlns:cc="http://creativecommons.org/ns#"
	 xmlns="http://www.w3.org/2000/svg" xmlns:xlink="http://www.w3.org/1999/xlink" x="0px" y="0px"
	 viewBox="-156.9 358.3 298.1 77.5" style="enable-background:new -156.9 358.3 298.1 77.5;" xml:space="preserve">
<style type="text/css">
	.st0{fill:none;}
	.st1{fill:#FFFFFF;}
	.st2{fill:url(#SVGID_1_);}
	.st3{fill:#055BA4;}
	.st4{display:none;fill:#FFFFFF;}
	.st5{fill:#E1302F;}
	.st6{fill:#FED335;}
	.st7{fill:#6AB139;}
</style>
<sodipodi:namedview  inkscape:current-layer="svg2" inkscape:window-y="-4" inkscape:window-x="-4" inkscape:pageshadow="2" inkscape:window-width="1024" inkscape:window-height="712" inkscape:pageopacity="0.0" borderopacity="1.0" gridtolerance="10.0" id="base" objecttolerance="10.0" guidetolerance="10.0" bordercolor="#666666" pagecolor="#ffffff" showgrid="false" inkscape:cx="165.49708" inkscape:zoom="1.05" inkscape:cy="22.372804">
	</sodipodi:namedview>
<defs>
	
	
		<inkscape:perspective  inkscape:persp3d-origin="149 : 28 : 1" id="perspective39" sodipodi:type="inkscape:persp3d" inkscape:vp_x="0 : 42 : 1" inkscape:vp_z="298 : 42 : 1" inkscape:vp_y="0 : 1000 : 0">
		</inkscape:perspective>
</defs>
<rect x="-156.9" y="358.3" class="st0" width="298.1" height="77.5"/>
<g id="layer1" transform="translate(-211.1228,-468.01584)" inkscape:label="Layer 1" inkscape:groupmode="layer">
	<g id="g3082" transform="matrix(1.0071874,0,0,1.0071874,-14.314034,63.974813)">
		<g id="g3397" transform="matrix(0.16733792,0,0,0.16733792,215.04627,324.41957)">
			<path id="path3237" sodipodi:nodetypes="ccccccccccccccc" class="st1" d="M-752.3,2933.5c0,0-1.4-7-1.4-14
				c0-26.5,9.8-40.5,37.7-40.5c20.9,0,40.5,2.8,64.2,2.8c19.5,0,30.7-4.2,30.7-15.4c0-34.9-138.2,0-138.2-92.1
				c0-58.7,50.2-74,110.3-74c26.5,0,75.4,5.6,75.4,5.6s1.4,4.2,1.4,12.6c0,33.5-14,40.5-34.9,40.5c-25.1,0-34.9-1.4-54.4-1.4
				c-12.6,0-36.3,1.4-36.3,14c0,30.7,139.6,1.4,139.6,93.5c0,48.8-32.1,74-111.7,74C-721.5,2939.1-752.3,2933.5-752.3,2933.5z"/>
			<path id="path3239" sodipodi:nodetypes="ccccccsc" class="st1" d="M-517.8,2939.1c-11.2,0-16.7-1.4-16.7-1.4v-270.8
				c0-36.3,14-47.5,48.8-47.5c9.8,0,14,1.4,14,1.4v287.5c0,30.7-27.9,30.7-41.9,30.7L-517.8,2939.1L-517.8,2939.1z"/>
			<path id="path3241" sodipodi:nodetypes="cccccccccccccccccc" class="st1" d="M-314,2933.5c0,0-14,7-34.9,7
				c-24.9,0.2-39.1-8.4-51.6-26.5l-63.4-99.8l82.9-91.4c14-15.4,32.1-22.3,55.8-22.3c19.5,0,27.9,4.2,27.9,4.2l79.6,131.2
				l46.1-106.1c7-16.7,22.3-27.9,46.1-27.9c16.7,0,27.9,5.6,27.9,5.6l-128.4,284.7c-5.6,12.6-14,27.9-43.3,27.9
				c-22.3,0-31.3-6.1-31.3-6.1L-247,2900l-88.6-138.6l-53.7,57.6L-314,2933.5z"/>
		</g>
		<g id="flowRoot3067" transform="matrix(4.5741581,0,0,4.5741581,-691.52168,209.88119)">
			<path id="path3076" class="st1" d="M204.5,132.5c-0.3,0-0.6-0.1-0.7-0.2c-0.1-0.1-0.1-0.3-0.1-0.5v-7.6c0-0.2,0-0.4,0.1-0.5
				c0.1-0.1,0.3-0.2,0.7-0.2h2.3c0.6,0,1.1,0.1,1.5,0.2c0.4,0.1,0.8,0.3,1,0.5c0.3,0.2,0.5,0.5,0.6,0.7c0.1,0.3,0.2,0.6,0.2,0.9
				c0,0.5-0.1,0.9-0.4,1.2c-0.3,0.4-0.6,0.6-1.1,0.8c0.6,0.1,1.1,0.4,1.4,0.8c0.3,0.4,0.5,0.8,0.5,1.3c0,0.8-0.3,1.5-0.9,1.9
				c-0.6,0.4-1.5,0.7-2.7,0.7H204.5z M205.2,131.1h1.5c0.7,0,1.3-0.1,1.6-0.3c0.3-0.2,0.5-0.5,0.5-1c0-0.2,0-0.3-0.1-0.5
				c-0.1-0.2-0.2-0.3-0.3-0.4c-0.1-0.1-0.3-0.2-0.6-0.3c-0.3-0.1-0.6-0.1-1-0.1h-1.6L205.2,131.1z M205.2,127.2h1.5
				c0.3,0,0.6,0,0.8-0.1c0.2-0.1,0.4-0.2,0.5-0.3c0.1-0.1,0.2-0.2,0.3-0.4c0.1-0.2,0.1-0.3,0.1-0.5c0-0.8-0.6-1.1-1.7-1.1h-1.6
				V127.2z"/>
			<path id="path3078" class="st1" d="M212.3,132.5c-0.3,0-0.6-0.1-0.7-0.2c-0.1-0.1-0.1-0.3-0.1-0.5v-7.6c0-0.2,0-0.4,0.1-0.5
				c0.1-0.1,0.3-0.2,0.7-0.2h4.7c0,0.1,0,0.2,0,0.3c0,0.1,0,0.3,0,0.4c0,0.3-0.1,0.5-0.2,0.6c-0.1,0.1-0.3,0.2-0.4,0.2H213v2.4h3.6
				c0,0.1,0,0.2,0,0.3c0,0.1,0,0.2,0,0.4c0,0.3-0.1,0.4-0.2,0.5c-0.1,0.1-0.2,0.2-0.4,0.2H213v2.4h4.1c0,0.1,0,0.2,0,0.3
				c0,0.1,0,0.2,0,0.4c0,0.3-0.1,0.5-0.2,0.6c-0.1,0.1-0.3,0.2-0.4,0.2H212.3z"/>
			<path id="path3080" class="st1" d="M221.5,132.6c-0.1,0-0.3,0-0.4,0c-0.1,0-0.3,0-0.3,0v-7.7h-2.8c0-0.1,0-0.2,0-0.3
				c0-0.1,0-0.3,0-0.4c0-0.3,0.1-0.5,0.2-0.6c0.1-0.1,0.3-0.1,0.5-0.1h6.5c0,0.1,0.1,0.4,0.1,0.6c0,0.5-0.2,0.8-0.6,0.8h-2.2v7.1
				c0,0.2-0.1,0.3-0.2,0.5C222,132.5,221.8,132.6,221.5,132.6L221.5,132.6z"/>
		</g>
	</g>
</g>
<linearGradient id="SVGID_1_" gradientUnits="userSpaceOnUse" x1="-156.8749" y1="397.0119" x2="141.1801" y2="397.0119">
	<stop  offset="0" style="stop-color:#D92844"/>
	<stop  offset="1" style="stop-color:#114D8B"/>
	<stop  offset="1" style="stop-color:#212226"/>
	<stop  offset="1" style="stop-color:#000000"/>
</linearGradient>
<rect x="-156.9" y="358.3" class="st2" width="298.1" height="77.5"/>
<rect x="-156.9" y="358.3" class="st3" width="298.1" height="77.5"/>
<g id="nhFx8H.tif">
	<g>
		<path class="st4" d="M-221.2,407.4c-37.5,0-75,0-112.5,0c0-24.2,0-48.5,0-72.7c155.7,0,311.5,0,467.2,0c0,24.2,0,48.5,0,72.7
			c-115,0-230,0-345,0c1.2-0.3,2.3-0.8,3.5-0.9c22.9-1.8,39.1-16.1,43.7-38.8c2.5-12.3-2.7-21.3-14.6-25.3
			c-10.1-3.3-20.4-3.1-30.7-1.4c-20.3,3.2-34.3,16.4-38.9,36.4c-3.3,14.4,2.5,24,16.9,27.8c2.5,0.7,5.1,0.9,7.7,1.4
			C-223,406.7-222.1,407.1-221.2,407.4z M-95.9,404.3c-5.6-10.6-10.8-20.6-16.3-31.1c2.2-0.9,3.7-1.4,5.1-2.1
			c4.1-1.8,8.4-3.3,12.2-5.5c4.8-2.7,8.2-6.9,9.5-12.4c1.2-4.9-0.4-8.9-5.1-10.7c-3.2-1.3-6.7-2.3-10.1-2.3
			c-13.4-0.3-26.7-0.2-40.1-0.2c-0.6,0-1.6-0.2-1.8,0.1c-0.5,1-1.2,3-1,3.1c4.2,2.2,2.6,5.6,1.6,8.5c-3.9,10.9-8,21.8-12.1,32.6
			c-2.5,6.5-5.1,12.9-7.8,19.9c5.3,0,10.1-0.1,14.8,0.1c2.5,0.1,3.8-0.7,4.6-3.1c2.2-6.6,4.6-13.2,7-19.7c4.1-11,8.3-21.9,12.7-32.8
			c0.9-2.2,2.5-4.5,4.4-5.7c3.4-2.1,10.5-0.7,12.9,2.1c3.1,3.5,1.9,7.2,0,10.7c-0.8,1.4-1.6,2.8-2.6,4.1
			c-4.7,6.5-11.5,9.9-18.7,12.4c-3.2,1.1-3.7,2.7-2.3,5.6c3.6,7.9,7.1,16,10.8,23.9c0.5,1,1.8,2.3,2.8,2.3
			C-108.9,404.4-102.5,404.3-95.9,404.3z M-83.6,404.9c5.5,0,10.1,0.2,14.7-0.1c1.4-0.1,3-1,3.9-2.1c4.3-5.4,8.2-11,12.5-16.4
			c1-1.2,2.9-2.3,4.5-2.4c6.4-0.3,12.7,0,19.1-0.2c2.2,0,3.3,0.7,3.9,3c1.3,5.3,2.7,10.6,4.3,15.9c0.3,0.9,1.5,2.2,2.3,2.2
			c5.5,0.2,10.9,0.1,16.3,0.1c0.2-0.6,0.4-0.9,0.3-1.1c-5-19.9-9.9-39.9-15.2-59.7c-0.4-1.6-2.8-3.5-4.4-3.8
			c-7.7-1.2-14.6,0.6-19.6,7.3c-8.6,11.5-17.2,23-25.8,34.5C-72.3,389.4-77.7,396.9-83.6,404.9z M-254.3,355.6
			c-3.3-6.9-8.2-11-14.5-13.2c-17.4-6-33.4-2.5-48.4,7.3c-6.6,4.3-10.9,10.5-13.6,17.9c-5.9,16.6,2.7,32.4,19.9,36.6
			c7.5,1.8,15.1,1.7,22.6,0.6c6.6-1,13-2.8,18.4-6.9c2.7-2.1,4.9-4.8,7.4-7.3c-6-0.9-11.3-1-16.5-0.8c-1.6,0.1-3.6,1.1-4.5,2.3
			c-2.8,3.7-6.3,6-10.7,7c-8.9,2.1-16.5-2.6-17.2-10.7c-0.9-10.1,1.3-19.7,6.2-28.4c4.6-8.2,11.6-12.9,21.4-12.7
			c4.7,0.1,8.5,1.5,10.5,6.3c0.4,0.9,1.7,1.9,2.7,1.9C-265.4,355.7-260.2,355.6-254.3,355.6z M32.2,393.9
			c6.4-18.5,12.6-36.2,19-54.5c-8.6,0-16.4,0-24.3,0.1c-0.8,0-2,0.8-2.1,1.4c-0.2,0.8,0.2,2.1,0.8,2.7c2.1,2.1,2.7,4.4,1.9,7.2
			c-0.6,2-1,4.1-1.7,6.1c-5.5,14.6-11,29.1-16.6,43.7c-0.5,1.3-1,2.7-1.6,4.4c17.6,0,34.6,0,51.5-0.1c0.9,0,2.2-0.8,2.5-1.6
			c1.2-2.9,2-5.8,3.2-9.4C53.9,393.9,43.3,393.9,32.2,393.9z M70.5,380.9c10.5-8.1,22.1-8.7,34.3-6.1c2.2,0.5,4.7-0.3,7.1-0.6
			c-4-2.7-7.5-5.2-9.5-9.6c2.4-1,4.4-1.8,7.2-2.9c-9-3.8-15.9,0-23.4,3.6c0.9-3.1,1.6-5.5,2.2-7.9c-0.3-0.3-0.6-0.6-0.9-0.9
			c-3.9,2.8-9,4.9-11.5,8.7C73.1,369.7,72.3,375.6,70.5,380.9z M79.7,354.8c8.7-5.4,17.3-7.9,26.6-7.5c8.4,0.4,14.9-3.1,20.6-10
			c-7.1,2.9-13.6,2.4-20.2,0.5c-3.4-1-7.2-1.5-10.6-1.2c-4.3,0.4-9.4,1-11.8,5.2C82.2,345.5,81.4,349.9,79.7,354.8z"/>
		<path class="st1" d="M-74.8,417.4c-0.5-0.2-1-0.4-1.5-0.5c-1.5-0.3-2.9-0.4-4.4-0.8c-8.2-2.1-11.5-7.6-9.6-15.8
			c2.6-11.3,10.6-18.9,22.1-20.7c5.8-0.9,11.7-1.1,17.4,0.8c6.8,2.2,9.7,7.4,8.3,14.4c-2.6,12.9-11.8,21-24.8,22
			c-0.7,0.1-1.3,0.3-2,0.5C-71.1,417.4-73,417.4-74.8,417.4z M-61.7,381.9c-3.6,0-6.6,1.4-9.2,3.8c-5.2,4.8-7.8,11.1-8.7,18
			c-0.8,6.4,2.2,10.1,8.3,10.6c3.6,0.3,6.8-1.1,9.5-3.6c5.4-5,8-11.4,8.9-18.5C-52.1,386.1-55.6,381.9-61.7,381.9z"/>
		<path class="st1" d="M-3.6,415.6c-3.8,0-7.4,0.1-11-0.1c-0.6,0-1.3-0.7-1.6-1.3c-2.1-4.5-4-9.1-6.1-13.6c-0.7-1.6-0.5-2.5,1.3-3.2
			c4.1-1.5,8-3.4,10.6-7.1c0.5-0.7,1-1.5,1.5-2.3c1.1-2,1.8-4.1,0-6.1c-1.4-1.6-5.4-2.4-7.3-1.2c-1.1,0.7-2,2-2.5,3.3
			c-2.5,6.2-4.9,12.4-7.2,18.6c-1.4,3.7-2.7,7.4-4,11.2c-0.5,1.4-1.2,1.8-2.6,1.8c-2.7-0.1-5.4,0-8.4,0c1.6-4,3-7.6,4.4-11.3
			c2.3-6.2,4.6-12.3,6.9-18.5c0.6-1.7,1.5-3.6-0.9-4.8c-0.1-0.1,0.3-1.2,0.6-1.8c0.1-0.2,0.7-0.1,1-0.1c7.6,0,15.2,0,22.8,0.1
			c1.9,0,3.9,0.6,5.7,1.3c2.6,1.1,3.6,3.3,2.9,6.1c-0.8,3.1-2.7,5.5-5.4,7.1c-2.2,1.2-4.6,2.1-6.9,3.1c-0.8,0.4-1.7,0.7-2.9,1.2
			C-9.8,403.9-6.8,409.6-3.6,415.6z"/>
		<path class="st1" d="M3.3,416c3.4-4.6,6.4-8.8,9.5-13c4.9-6.5,9.8-13,14.6-19.6c2.8-3.8,6.7-4.8,11.1-4.1c1,0.2,2.3,1.3,2.5,2.2
			c3,11.3,5.8,22.6,8.6,33.9c0,0.1-0.1,0.3-0.2,0.6c-3,0-6.2,0.1-9.3-0.1c-0.5,0-1.1-0.7-1.3-1.2c-0.9-3-1.7-6-2.5-9
			c-0.3-1.3-0.9-1.7-2.2-1.7c-3.6,0.1-7.2-0.1-10.9,0.1c-0.9,0-2,0.7-2.5,1.4c-2.4,3-4.7,6.2-7.1,9.3c-0.5,0.6-1.4,1.1-2.2,1.2
			C9.1,416.1,6.4,416,3.3,416z M32.9,388.6c-0.2-0.1-0.4-0.2-0.6-0.3c-2.9,4-5.8,7.9-9.1,12.4c4.5,0,8.2,0,12.1,0
			C34.6,396.6,33.8,392.6,32.9,388.6z"/>
		<path class="st1" d="M-93.6,387.9c-3.3,0-6.3,0.1-9.3-0.1c-0.5,0-1.3-0.6-1.5-1.1c-1.1-2.7-3.3-3.5-6-3.6
			c-5.5-0.1-9.5,2.5-12.1,7.2c-2.8,5-4,10.4-3.5,16.2c0.4,4.6,4.8,7.3,9.8,6.1c2.5-0.6,4.5-1.9,6.1-4c0.5-0.7,1.7-1.3,2.5-1.3
			c3-0.2,6-0.1,9.4,0.4c-1.4,1.4-2.6,3-4.2,4.1c-3.1,2.3-6.7,3.3-10.4,3.9c-4.3,0.7-8.6,0.7-12.9-0.3c-9.8-2.3-14.7-11.3-11.3-20.8
			c1.5-4.2,4-7.7,7.7-10.2c8.5-5.6,17.6-7.5,27.5-4.1C-98.3,381.7-95.5,384.1-93.6,387.9z"/>
		<path class="st1" d="M69.1,409.7c6.3,0,12.3,0,18.6,0c-0.7,2-1.1,3.7-1.8,5.4c-0.2,0.4-0.9,0.9-1.4,0.9c-9.6,0.1-19.3,0-29.3,0
			c0.3-1,0.6-1.7,0.9-2.5c3.1-8.3,6.3-16.5,9.4-24.8c0.4-1.1,0.7-2.3,1-3.5c0.4-1.6,0.1-2.9-1.1-4.1c-0.4-0.3-0.6-1.1-0.5-1.5
			c0.1-0.4,0.8-0.8,1.2-0.8c4.5-0.1,8.9,0,13.8,0C76.3,389.1,72.8,399.2,69.1,409.7z"/>
		<path class="st5" d="M90.9,402.4c1-3,1.5-6.4,3.2-8.9c1.4-2.1,4.3-3.3,6.5-5c0.2,0.2,0.4,0.4,0.5,0.5c-0.4,1.4,5.6-2.9,5.1-1.2
			c4.2-2,3.7,0.3,8.8,2.4c-1.6,0.6-4.6,2.3-6,2.8c1.1,2.5,3.1,4,5.4,5.5c-1.4,0.1-2.8,0.6-4,0.3C103.4,397.4,96.9,397.8,90.9,402.4z
			"/>
		<path class="st6" d="M121.3,390.6c-1.4,0.1-2.8,0.6-4,0.3c-1.2,0.7-12.4-4.9-19.5,3.5c1-3,1.5-6.4,3.2-8.9c1.4-2.1,4.3-3.3,6.5-5
			c0.2,0.2,0.4,0.4,0.5,0.5c-0.4,1.4-0.2,0.8-0.7,2.5c4.2-2,7.8,3.1,14.9-1.1"/>
		<path class="st7" d="M96.1,387.5c1-2.8,1.4-5.3,2.6-7.4c1.4-2.4,4.2-2.7,6.7-3c2-0.2,4.1,0.1,6,0.7c3.8,1.1,7.4,1.3,11.5-0.3
			c-3.3,3.9-6.9,5.9-11.7,5.7C105.9,383,101,384.4,96.1,387.5z"/>
		<path class="st4" d="M-198.1,344.9c10.7,0,16.9,7.4,15.6,18.1c-1.6,12.6-6.1,23.9-15.6,32.6c-4.7,4.3-10.4,6.8-16.7,6.3
			c-10.9-0.9-16.1-7.4-14.7-18.7c1.5-12.1,6-23.1,15.2-31.7C-209.8,347.4-204.4,344.9-198.1,344.9z"/>
		<path class="st4" d="M-31.5,356.7c1.4,7,2.9,14,4.3,21.3c-7,0-13.5,0-21.4,0c5.7-7.8,10.9-14.8,16-21.8
			C-32.2,356.4-31.8,356.6-31.5,356.7z"/>
	</g>
</g>
</svg>
