<?xml version="1.0" encoding="utf-8"?>
<!-- Generator: Adobe Illustrator 19.1.0, SVG Export Plug-In . SVG Version: 6.00 Build 0)  -->
<svg version="1.1"
	 id="svg2" inkscape:output_extension="org.inkscape.output.svg.inkscape" sodipodi:docname="William_Hill.svg" inkscape:version="0.46" sodipodi:version="0.32" xmlns:inkscape="http://www.inkscape.org/namespaces/inkscape" xmlns:sodipodi="http://sodipodi.sourceforge.net/DTD/sodipodi-0.dtd" xmlns:svg="http://www.w3.org/2000/svg" xmlns:rdf="http://www.w3.org/1999/02/22-rdf-syntax-ns#" xmlns:dc="http://purl.org/dc/elements/1.1/" xmlns:cc="http://creativecommons.org/ns#"
	 xmlns="http://www.w3.org/2000/svg" xmlns:xlink="http://www.w3.org/1999/xlink" x="0px" y="0px"
	 viewBox="-156.9 358.3 298.1 77.5" style="enable-background:new -156.9 358.3 298.1 77.5;" xml:space="preserve">
<style type="text/css">
	.st0{fill:#2A589C;}
	.st1{fill:#B4212E;}
	.st2{fill:#FFFFFF;}
</style>
<sodipodi:namedview  inkscape:current-layer="svg2" inkscape:window-y="-4" inkscape:window-x="-4" inkscape:pageshadow="2" inkscape:window-width="1024" inkscape:window-height="712" inkscape:pageopacity="0.0" borderopacity="1.0" gridtolerance="10.0" id="base" objecttolerance="10.0" guidetolerance="10.0" bordercolor="#666666" pagecolor="#ffffff" showgrid="false" inkscape:cx="165.49708" inkscape:zoom="1.05" inkscape:cy="22.372804">
	</sodipodi:namedview>
<defs>
	
	
		<inkscape:perspective  inkscape:persp3d-origin="149 : 28 : 1" id="perspective39" sodipodi:type="inkscape:persp3d" inkscape:vp_x="0 : 42 : 1" inkscape:vp_z="298 : 42 : 1" inkscape:vp_y="0 : 1000 : 0">
		</inkscape:perspective>
</defs>
<rect x="-156.9" y="358.3" class="st0" width="298.1" height="77.5"/>
<rect x="-7.8" y="358.3" class="st1" width="148.9" height="77.5"/>
<g id="layer1" transform="translate(-211.1228,-468.01584)" inkscape:label="Layer 1" inkscape:groupmode="layer">
	<g id="g3082" transform="matrix(1.0071874,0,0,1.0071874,-14.314034,63.974813)">
		<g id="g3397" transform="matrix(0.16733792,0,0,0.16733792,215.04627,324.41957)">
			<path id="path3237" sodipodi:nodetypes="ccccccccccccccc" class="st2" d="M-752.3,2933.5c0,0-1.4-7-1.4-14
				c0-26.5,9.8-40.5,37.7-40.5c20.9,0,40.5,2.8,64.2,2.8c19.5,0,30.7-4.2,30.7-15.4c0-34.9-138.2,0-138.2-92.1
				c0-58.7,50.2-74,110.3-74c26.5,0,75.4,5.6,75.4,5.6s1.4,4.2,1.4,12.6c0,33.5-14,40.5-34.9,40.5c-25.1,0-34.9-1.4-54.4-1.4
				c-12.6,0-36.3,1.4-36.3,14c0,30.7,139.6,1.4,139.6,93.5c0,48.8-32.1,74-111.7,74C-721.5,2939.1-752.3,2933.5-752.3,2933.5z"/>
			<path id="path3239" sodipodi:nodetypes="ccccccsc" class="st2" d="M-517.8,2939.1c-11.2,0-16.7-1.4-16.7-1.4v-270.8
				c0-36.3,14-47.5,48.8-47.5c9.8,0,14,1.4,14,1.4v287.5c0,30.7-27.9,30.7-41.9,30.7L-517.8,2939.1L-517.8,2939.1z"/>
			<path id="path3241" sodipodi:nodetypes="cccccccccccccccccc" class="st2" d="M-314,2933.5c0,0-14,7-34.9,7
				c-24.9,0.2-39.1-8.4-51.6-26.5l-63.4-99.8l82.9-91.4c14-15.4,32.1-22.3,55.8-22.3c19.5,0,27.9,4.2,27.9,4.2l79.6,131.2
				l46.1-106.1c7-16.7,22.3-27.9,46.1-27.9c16.7,0,27.9,5.6,27.9,5.6l-128.4,284.7c-5.6,12.6-14,27.9-43.3,27.9
				c-22.3,0-31.3-6.1-31.3-6.1L-247,2900l-88.6-138.6l-53.7,57.6L-314,2933.5z"/>
		</g>
		<g id="flowRoot3067" transform="matrix(4.5741581,0,0,4.5741581,-691.52168,209.88119)">
			<path id="path3076" class="st2" d="M204.5,132.5c-0.3,0-0.6-0.1-0.7-0.2c-0.1-0.1-0.1-0.3-0.1-0.5v-7.6c0-0.2,0-0.4,0.1-0.5
				c0.1-0.1,0.3-0.2,0.7-0.2h2.3c0.6,0,1.1,0.1,1.5,0.2c0.4,0.1,0.8,0.3,1,0.5c0.3,0.2,0.5,0.5,0.6,0.7c0.1,0.3,0.2,0.6,0.2,0.9
				c0,0.5-0.1,0.9-0.4,1.2c-0.3,0.4-0.6,0.6-1.1,0.8c0.6,0.1,1.1,0.4,1.4,0.8c0.3,0.4,0.5,0.8,0.5,1.3c0,0.8-0.3,1.5-0.9,1.9
				c-0.6,0.4-1.5,0.7-2.7,0.7H204.5z M205.2,131.1h1.5c0.7,0,1.3-0.1,1.6-0.3c0.3-0.2,0.5-0.5,0.5-1c0-0.2,0-0.3-0.1-0.5
				c-0.1-0.2-0.2-0.3-0.3-0.4c-0.1-0.1-0.3-0.2-0.6-0.3c-0.3-0.1-0.6-0.1-1-0.1h-1.6L205.2,131.1z M205.2,127.2h1.5
				c0.3,0,0.6,0,0.8-0.1c0.2-0.1,0.4-0.2,0.5-0.3c0.1-0.1,0.2-0.2,0.3-0.4c0.1-0.2,0.1-0.3,0.1-0.5c0-0.8-0.6-1.1-1.7-1.1h-1.6
				V127.2z"/>
			<path id="path3078" class="st2" d="M212.3,132.5c-0.3,0-0.6-0.1-0.7-0.2c-0.1-0.1-0.1-0.3-0.1-0.5v-7.6c0-0.2,0-0.4,0.1-0.5
				c0.1-0.1,0.3-0.2,0.7-0.2h4.7c0,0.1,0,0.2,0,0.3c0,0.1,0,0.3,0,0.4c0,0.3-0.1,0.5-0.2,0.6c-0.1,0.1-0.3,0.2-0.4,0.2H213v2.4h3.6
				c0,0.1,0,0.2,0,0.3c0,0.1,0,0.2,0,0.4c0,0.3-0.1,0.4-0.2,0.5c-0.1,0.1-0.2,0.2-0.4,0.2H213v2.4h4.1c0,0.1,0,0.2,0,0.3
				c0,0.1,0,0.2,0,0.4c0,0.3-0.1,0.5-0.2,0.6c-0.1,0.1-0.3,0.2-0.4,0.2H212.3z"/>
			<path id="path3080" class="st2" d="M221.5,132.6c-0.1,0-0.3,0-0.4,0c-0.1,0-0.3,0-0.3,0v-7.7h-2.8c0-0.1,0-0.2,0-0.3
				c0-0.1,0-0.3,0-0.4c0-0.3,0.1-0.5,0.2-0.6c0.1-0.1,0.3-0.1,0.5-0.1h6.5c0,0.1,0.1,0.4,0.1,0.6c0,0.5-0.2,0.8-0.6,0.8h-2.2v7.1
				c0,0.2-0.1,0.3-0.2,0.5C222,132.5,221.8,132.6,221.5,132.6L221.5,132.6z"/>
		</g>
	</g>
</g>
</svg>
