<?xml version="1.0" encoding="utf-8"?>
<!-- Generator: Adobe Illustrator 19.1.0, SVG Export Plug-In . SVG Version: 6.00 Build 0)  -->
<svg version="1.1" xmlns="http://www.w3.org/2000/svg" xmlns:xlink="http://www.w3.org/1999/xlink" x="0px" y="0px"
	 viewBox="-156 358.5 298.1 77.5" style="enable-background:new -156 358.5 298.1 77.5;" xml:space="preserve">
<style type="text/css">
	.st0{fill:url(#polyline10_1_);}
	.st1{fill:#FBD601;}
	.st2{fill:#FFFFFF;}
	.st3{clip-path:url(#SVGID_2_);fill:#FBD601;}
	.st4{clip-path:url(#SVGID_4_);fill:#FBD601;}
</style>
<g id="Layer_2">
</g>
<g id="svg2" sodipodi:version="0.32" inkscape:version="0.46" sodipodi:docname="William_Hill.svg" inkscape:output_extension="org.inkscape.output.svg.inkscape" xmlns:cc="http://creativecommons.org/ns#" xmlns:dc="http://purl.org/dc/elements/1.1/" xmlns:rdf="http://www.w3.org/1999/02/22-rdf-syntax-ns#" xmlns:svg="http://www.w3.org/2000/svg" xmlns:inkscape="http://www.inkscape.org/namespaces/inkscape" xmlns:sodipodi="http://sodipodi.sourceforge.net/DTD/sodipodi-0.dtd">
	
		<sodipodi:namedview  inkscape:pageshadow="2" inkscape:window-x="-4" inkscape:window-y="-4" inkscape:current-layer="svg2" inkscape:pageopacity="0.0" inkscape:window-height="712" inkscape:window-width="1024" borderopacity="1.0" gridtolerance="10.0" id="base" objecttolerance="10.0" inkscape:zoom="1.05" inkscape:cy="22.372804" inkscape:cx="165.49708" showgrid="false" pagecolor="#ffffff" bordercolor="#666666" guidetolerance="10.0">
		</sodipodi:namedview>
	<defs>
		
		
			<inkscape:perspective  inkscape:persp3d-origin="149 : 28 : 1" id="perspective39" inkscape:vp_y="0 : 1000 : 0" inkscape:vp_z="298 : 42 : 1" inkscape:vp_x="0 : 42 : 1" sodipodi:type="inkscape:persp3d">
			</inkscape:perspective>
	</defs>
	<g id="g2394" transform="matrix(1.1144574,0,0,1.1144574,-12.495348,2.620768e-2)">
		<g id="g6" transform="matrix(0.975878,0,0,0.9011521,-0.7892489,-0.2380792)">
			<g id="g8">
				<linearGradient id="polyline10_1_" gradientUnits="userSpaceOnUse" x1="5.5519" y1="425.8421" x2="6.9092" y2="371.5494">
					<stop  offset="0" style="stop-color:#17345E"/>
					<stop  offset="1" style="stop-color:#1A97CF"/>
				</linearGradient>
				<polyline id="polyline10" class="st0" points="-131.7,434.9 144.2,435 144.2,356.5 -131.7,356.4 				"/>
			</g>
		</g>
		<path id="path12" class="st1" d="M-13.9,340.1c0.3,0.5,0.5,1.1,0.3,1.6c-0.3,1.3-1.5,2.7-2.8,3.2c-0.7,0.2-1.5,0.3-2.2,0
			c-0.6-0.5-0.8-1.1-0.7-1.9c0.2-1.5,1.7-2.7,3-3.3C-15.6,339.6-14.5,339.5-13.9,340.1"/>
		<path id="path14" class="st1" d="M-44.1,339.4c0.4,0.4,0.5,1,0.3,1.6c-0.5,1.6-2.1,3.4-3.9,3.5c-0.6,0-1.2-0.3-1.4-0.9
			c-0.4-1.1,0.1-2.1,0.7-2.9C-47.4,339.4-45.5,338.4-44.1,339.4"/>
		
			<rect id="rect16" x="59.1" y="350.2" transform="matrix(-4.120310e-04 1 -1 -4.120310e-04 433.2695 278.0349)" class="st2" width="37.2" height="10.8"/>
		<polyline id="polyline18" class="st2" points="108.2,374.2 108.2,337 119,337 119,363.1 127.2,363.1 127.2,374.2 108.2,374.2 		
			"/>
		<polyline id="polyline20" class="st2" points="86.3,374.2 86.4,337 97.2,337 97.1,363.1 105.3,363.1 105.3,374.2 86.3,374.2 		"/>
		<polyline id="polyline22" class="st2" points="42.1,337 42,374.2 53.1,374.2 53.2,360.3 57.9,360.3 57.9,374.2 69,374.2 69,337 
			57.9,337 57.9,349.8 53.2,349.8 53.2,337 42.1,337 		"/>
		<g id="g24" transform="translate(-4.0962668,-4.0962668)">
			<g>
				<g>
					<defs>
						
							<rect id="SVGID_1_" x="-23.3" y="206" transform="matrix(3.732006e-04 -1 1 3.732006e-04 -350.9429 367.1554)" width="63" height="306.3"/>
					</defs>
					<clipPath id="SVGID_2_">
						<use xlink:href="#SVGID_1_"  style="overflow:visible;"/>
					</clipPath>
					<path id="path32" class="st3" d="M42,344.3c3,5.2,2.6,12.8-0.1,17.9c-2.5,5-5.6,10.1-10.4,13.8c-2.4,1.6-5.1,3.7-8.3,2.4
						c-1.1-0.6-1.7-1.8-1.9-3c0-4.8,3.6-8.3,6.5-11.7c2.4-2.5,5.4-5.1,7.8-7.7c0.4-0.4,0.5-1,0.5-1.5c-1.1-1.1-2.5,0.1-3.6,0.5
						c-3.8,2.5-7.3,6-10.3,9.6l-10.6,13c-0.7,0.4-1.2-0.4-1.9-0.3c-1.1-0.2-1.9,0.4-2.9,0.3c-0.2-0.2-0.1-0.5,0-0.6l5.1-6.7
						l9.3-12.2c0.5-1.1,1.5-2.1,1.5-3.3c-0.3-0.5-1-0.1-1.3,0.2c-5.4,4.2-9.9,9.8-14.2,14.9L1,377.6c-0.6,0.2-1-0.4-1.6-0.4
						c-0.9-0.2-1.7,0.1-2.6,0.3h-0.4V377l13.9-18.2c0.7-1.3,1.8-2.4,1.9-3.9c-0.3-0.6-1-0.3-1.4-0.1c-2.8,1.8-4.7,4.6-7,7l-7.6,8.9
						c-2.4,2.3-4.4,5.3-7.1,7c-0.6,0.3-1.3,0.4-1.9,0.1c-1.8-1.6-0.7-4.6-0.1-6.4c-2.8,2.3-5.3,5.5-8.8,6.5
						c-0.8,0.1-1.4-0.2-1.9-0.8c-0.9-1.4-1.1-3.3-1.1-4.9c-2.3,2-4.7,4.4-7.6,5.6c-0.5,0-1.1,0-1.4-0.5c-1.3-1.6-0.6-3.9-0.4-5.6
						c-2.7,2.2-5.3,4.9-8.5,6.1c-0.6,0.2-1.4,0.2-1.9-0.2c-1.4-1.5-0.8-3.7-0.5-5.4c-2.4,2-4.7,4.8-7.7,5.6
						c-0.7,0.2-1.2-0.4-1.5-0.9c-0.7-1.9-0.4-4.3,0.4-6c-2.7,2.4-5.6,5.3-8.8,6.9c-0.5,0.2-1.3,0.4-1.8,0.1c-1.4-1.6-0.5-4,0-5.7
						c0.9-2.1,2-3.9,3.4-5.7l9.6-12.3c1.7,0,3.5,0.1,4.7,0c0.3,0.2,0.1,0.5,0,0.7l-7.1,8.5l-8.8,10.6c-0.7,1-1.7,2-1.5,3.3
						c0.8,0.7,1.6-0.3,2.3-0.5c3.7-2.7,7.2-5.9,10.2-9.5l8.2-10.7l10.4-13.4c0.2-0.2,0.4-0.3,0.6-0.3c1.7,0.2,3.1,0.1,4.8,0.2
						c0.3,0.1,0.2,0.4,0.2,0.6l-3.9,4.9l-14,16.9c-2.5,2.9-4.8,5.9-6.8,9.1c-0.3,0.8-1.3,1.8-0.4,2.6c2.3-0.6,3.9-2.5,5.7-4.1
						c1.7-1.6,3.2-3.3,4.7-5.2L-25,346c1-1,1.6-2.5,2.8-3.2l4.8,0.2c0.3,0.1,0.2,0.5,0.1,0.7l-16.5,20l-8.4,10.3
						c-0.5,0.9-1.3,1.8-1.2,3c0.2,0.3,0.6,0.4,0.9,0.3c2.7-1.1,5.2-3.2,7.4-5.3c3.6-3.4,6.6-7.7,9.7-11.5l5.1-6.5h5
						c0.3,0.1,0.2,0.6,0.1,0.7l-7.7,9.3l-8.2,9.8c-0.6,1.1-1.8,2.1-1.2,3.4c2.5-0.8,4.3-3,6.4-4.6l1.8-1.9
						c3.2-9,12.7-14.8,21.3-17.2c0.6-0.2,1.2,0,1.6,0.3c0.6,0.4,0.6,1.2,0.5,1.8c-0.1,0.1-0.1,0.1-0.1,0.1c0.1,0,0.1,0.2,0.2,0.1
						c0.5-0.7,1-1.6,1.8-1.9c1.6,0.1,3.1-0.2,4.8-0.1c0.4,0.1,0.2,0.6,0.1,0.8l-16,19.2c-0.6,1.1-1.8,2-1.9,3.3
						c0.3,0.5,0.8,0.1,1.2,0l2.1-1.8l8.3-9.2c3.4-3.7,6.4-7.9,10.1-11.2c0.9-0.6,1.9-1.4,3.1-1c1.1,0.5,1.5,1.6,1.5,2.7
						c0.2,1.9-0.7,3.7-1.4,5.4c0.4,0.1,0.5-0.5,0.9-0.8c2.9-2.5,5-5.2,8.2-7.1c0.6-0.2,1.4-0.4,1.9,0c1,0.7,1.2,1.8,1.3,3
						c-0.1,1.6-0.6,2.9-1.3,4.2c0.1,0.1,0.2,0,0.3,0.1c3.1-3.1,6.3-6.6,10.4-7.8c0.7-0.2,1.6-0.1,2.3,0.3c1.4,1.2,0.8,3.5,0.3,4.9
						c-0.8,1.9-2.1,3.7-3.4,5.3l-7.9,9.7c-0.7,1.2-1.8,2.3-1.6,3.8c0.3,0.6,0.9,0.7,1.5,0.7c5-1,8.4-5,11.4-9
						c4.6-6.3,7.7-14.8,4.7-22.7c-1.3-3.5-4.7-5.9-8.4-6.1c-3.9-0.2-7.7,1.9-9.7,5.4c-0.5,1.3-1.4,3.1-0.5,4.5
						c0.9,1.4,2.6,1.3,3.9,1.2c2.7-0.7,4.9-2.5,6.7-5h0.2c-0.1,0.9-0.9,1.7-1.5,2.5c-2.1,2.3-4.9,3.7-8.1,3
						c-0.9-0.4-1.9-1.3-2.1-2.4c-0.3-3.9,2.4-7.1,5.8-8.8c3.3-1.7,7.7-1.8,10.9,0.2C40.1,341.8,41.2,343,42,344.3 M-2.8,354
						c-1.9,0.4-3.4,1.8-5,3c-4.4,4.3-8.9,8.4-12.1,13.3c-1.3,2.1-2.7,4-3,6.4c0,0.3,0.4,0.6,0.7,0.6c2.1-0.1,3.4-2.1,5.2-3.3
						c4.5-4.2,9.2-9.2,12.9-14.5c1-1.5,2.1-3.1,2.1-5C-2,354.2-2.4,354-2.8,354z"/>
				</g>
			</g>
			<g>
				<g>
					<defs>
						
							<rect id="SVGID_3_" x="-23.3" y="206" transform="matrix(3.732006e-04 -1 1 3.732006e-04 -350.9429 367.1554)" width="63" height="306.3"/>
					</defs>
					<clipPath id="SVGID_4_">
						<use xlink:href="#SVGID_3_"  style="overflow:visible;"/>
					</clipPath>
					<path id="path34" class="st4" d="M-59.2,339.7c0.8,0.5,1.7,1,2.4,1.8c-1.2-0.2-2.2-1.3-3.4-1.8c-10.9-5.7-25-5.4-36.3-0.8
						c-8.3,3.4-17.1,10.9-18.1,20.3c-0.2,3.8,0.4,8.6,4.4,10.3c0.4-0.2,0.2-0.8,0.2-1.2c-1-8.5,1.6-17.2,9-21.7
						c2.8-1.8,6.1-2.5,9.7-2.6c3.8-1.8,8-3.4,12.5-2.6c2.6,0.5,4.9,1.6,7.7,1.7c1.7-0.7,3.4-2.2,5.4-1.4c0.2,0.2,0.2,0.6,0.1,0.8
						c-1.4,1-3.3,1.1-5,1.3c-2.4,1.9-3.5,4.8-4.8,7.3c-3.9,8.6-6.8,17.6-14.4,24.6c-0.4,0.3-0.8,0.5-1.1,0.9
						c1.7-0.1,3.2-1.2,4.6-2.2c7.1-6.2,11-14.9,16.1-22.7c2.6-3.9,5.8-7.7,9.8-10.1c0.3,0,0.6,0,0.6,0.4c-0.4,0.8-1.2,1.6-1.7,2.4
						c-4.2,7-4.6,15.5-9.4,22.3c-2.5,3.9-5.5,7.6-9.6,10.1v0.1c-0.1-0.1-0.3,0-0.3,0.1c0.1,0.3,0.3,0.2,0.4,0.1
						c3.3-0.2,5.8-2.7,8.4-4.8c4.9-4.8,7.9-11.1,11.7-16.7c4.3-7,10.8-13.6,18.5-16.6c5.5-1.7,12.2-1.5,16.1,3.3
						c0.2,0.2,0.2,0.4,0.2,0.6h-0.2c-3.8-3.7-9.8-4-14.5-2.1c-6.4,2-12,7.6-16,13.2l-7.2,10.4c-4.3,6.6-11,14.1-19.4,13.7
						c-1.1,0.5-2.4,0.9-3.4,0c-0.2-0.4,0.2-0.6,0.4-0.8c1.1-0.7,2.7,0.5,3.6-0.8c2.8-3.1,4.7-6.7,6.6-10.1c1.7-3.3,3.2-6.8,4.7-10.3
						c0,0-0.1-0.1-0.2-0.1c-4.3,7.5-9,16.5-17.2,20.8c-1.9,1.2-4.5,0.7-6.5,1.6c-0.8,0.1-2,0.1-2.6-0.6c-0.2-0.5,0.2-0.8,0.6-1
						c1.3-0.5,2.4,0,3.8,0.1c1.7-1.3,2.6-3.4,3.7-5.2c3.1-6.5,5.5-13.2,9.4-19.3c2-3.2,4.6-6,7.5-8.3l-0.2-0.1
						c-4.9-0.6-10.3-0.1-14.8,1.8c0.1,0.7,0.7,1.2,1,1.9c1.9,4.7,0.1,9.8-2,13.9c-2.4,4-6.6,8.8-11.6,8.3c-0.7-0.1-1.2-0.6-1.9-0.7
						c-1.8,1-3.9,1.4-6,1.6c-0.5,0.5,0.1,1.1,0.2,1.7c2.7,7.2,9.6,10.6,16.9,10.8l222.2,0.1v1.1l-219.5-0.1
						c-8.1,0.4-15.3-2.1-19.6-9c-1-1.4-1.3-3.1-1.9-4.6c-0.9-0.7-2.1-1.1-2.9-2.1c-2.8-3-3-7.6-2.3-11.6c2-9.4,9.6-17.6,18.7-20.9
						C-84.4,331.8-69.5,333.3-59.2,339.7 M-88.7,346.3c-7.4,3.6-14.5,10.8-13.9,19.7c0.2,0.6,0.2,1.4,0.8,1.9
						c4.1-2.8,7.5-7.2,8.6-12h0.2c0.2,0.4,0.2,0.8,0.1,1.2c-1,4.6-4,8.8-8,11.7c0,0.5,0.5,0.4,0.8,0.6c4.4,0.5,7.1-3.8,9.6-6.6
						c2.7-4.5,5.7-10,3.1-15.4C-87.6,346.9-88,346.1-88.7,346.3z M-95.4,345.1c-1,0.2-2,0.7-2.5,0.9c-7.9,3.6-11.4,12.3-11,20.6
						c0.1,1.2,0.2,2.3,0.6,3.3c1.5,0.3,3.2-0.1,4.6-0.7c0.4-0.3,1.2-0.4,1.2-1.1c-0.7-1.1-1-2.3-1.3-3.5c-0.5-8.2,4.4-15.4,11-19.5
						l0.1-0.2C-93.1,344.7-94.3,344.8-95.4,345.1z"/>
				</g>
			</g>
		</g>
	</g>
</g>
</svg>
