<?xml version="1.0" encoding="utf-8"?>
<!-- Generator: Adobe Illustrator 19.0.0, SVG Export Plug-In . SVG Version: 6.00 Build 0)  -->
<!DOCTYPE svg PUBLIC "-//W3C//DTD SVG 1.1//EN" "http://www.w3.org/Graphics/SVG/1.1/DTD/svg11.dtd">
<svg version="1.1"
	 id="svg2" xmlns:cc="http://creativecommons.org/ns#" xmlns:sodipodi="http://sodipodi.sourceforge.net/DTD/sodipodi-0.dtd" xmlns:rdf="http://www.w3.org/1999/02/22-rdf-syntax-ns#" xmlns:svg="http://www.w3.org/2000/svg" xmlns:inkscape="http://www.inkscape.org/namespaces/inkscape" xmlns:dc="http://purl.org/dc/elements/1.1/" sodipodi:docname="William_Hill.svg" inkscape:output_extension="org.inkscape.output.svg.inkscape" sodipodi:version="0.32" inkscape:version="0.46"
	 xmlns="http://www.w3.org/2000/svg" xmlns:xlink="http://www.w3.org/1999/xlink" x="0px" y="0px" viewBox="-100 212.5 298.1 77.5"
	 style="enable-background:new -100 212.5 298.1 77.5;" xml:space="preserve">
<style type="text/css">
	.st0{display:none;}
	.st1{display:inline;}
	.st2{fill:#FFFFFF;}
	.st3{display:none;enable-background:new    ;}
	.st4{display:inline;fill:#FFFFFF;}
	.st5{fill:#164A00;}
	.st6{fill:#4E9A00;}
	.st7{fill:#2E5600;}
</style>
<g id="layer1" transform="translate(-211.1228,-468.01584)" inkscape:label="Layer 1" inkscape:groupmode="layer" class="st0">
	<g id="g3082" transform="matrix(1.0071874,0,0,1.0071874,-14.314034,63.974813)" class="st1">
		<g id="g3397" transform="matrix(0.16733792,0,0,0.16733792,215.04627,324.41957)">
			<path id="path3237" sodipodi:nodetypes="ccccccccccccccc" class="st2" d="M-1340.3,4195.5c0,0-1.4-7-1.4-14
				c0-26.5,9.8-40.5,37.7-40.5c20.9,0,40.5,2.8,64.2,2.8c19.5,0,30.7-4.2,30.7-15.4c0-34.9-138.2,0-138.2-92.1
				c0-58.7,50.2-74,110.3-74c26.5,0,75.4,5.6,75.4,5.6s1.4,4.2,1.4,12.6c0,33.5-14,40.5-34.9,40.5c-25.1,0-34.9-1.4-54.4-1.4
				c-12.6,0-36.3,1.4-36.3,14c0,30.7,139.6,1.4,139.6,93.5c0,48.8-32.1,74-111.7,74C-1309.5,4201.1-1340.3,4195.5-1340.3,4195.5z"/>
			<path id="path3239" sodipodi:nodetypes="ccccccsc" class="st2" d="M-1105.8,4201.1c-11.2,0-16.7-1.4-16.7-1.4v-270.8
				c0-36.3,14-47.5,48.8-47.5c9.8,0,14,1.4,14,1.4v287.5c0,30.7-27.9,30.7-41.9,30.7L-1105.8,4201.1L-1105.8,4201.1z"/>
			<path id="path3241" sodipodi:nodetypes="cccccccccccccccccc" class="st2" d="M-902,4195.5c0,0-14,7-34.9,7
				c-24.9,0.2-39.1-8.4-51.6-26.5l-63.4-99.8l82.9-91.4c14-15.4,32.1-22.3,55.8-22.3c19.5,0,27.9,4.2,27.9,4.2l79.6,131.2
				l46.1-106.1c7-16.7,22.3-27.9,46.1-27.9c16.7,0,27.9,5.6,27.9,5.6L-814,4254.2c-5.6,12.6-14,27.9-43.3,27.9
				c-22.3,0-31.3-6.1-31.3-6.1l53.6-114l-88.6-138.6l-53.7,57.6L-902,4195.5z"/>
		</g>
		<g id="flowRoot3067" transform="matrix(4.5741581,0,0,4.5741581,-691.52168,209.88119)">
			<path id="path3076" class="st2" d="M183,178.6c-0.3,0-0.6-0.1-0.7-0.2c-0.1-0.1-0.1-0.3-0.1-0.5v-7.6c0-0.2,0-0.4,0.1-0.5
				c0.1-0.1,0.3-0.2,0.7-0.2h2.3c0.6,0,1.1,0.1,1.5,0.2c0.4,0.1,0.8,0.3,1,0.5c0.3,0.2,0.5,0.5,0.6,0.7c0.1,0.3,0.2,0.6,0.2,0.9
				c0,0.5-0.1,0.9-0.4,1.2c-0.3,0.4-0.6,0.6-1.1,0.8c0.6,0.1,1.1,0.4,1.4,0.8c0.3,0.4,0.5,0.8,0.5,1.3c0,0.8-0.3,1.5-0.9,1.9
				c-0.6,0.4-1.5,0.7-2.7,0.7H183z M183.7,177.2h1.5c0.7,0,1.3-0.1,1.6-0.3s0.5-0.5,0.5-1c0-0.2,0-0.3-0.1-0.5s-0.2-0.3-0.3-0.4
				c-0.1-0.1-0.3-0.2-0.6-0.3s-0.6-0.1-1-0.1h-1.6L183.7,177.2z M183.7,173.3h1.5c0.3,0,0.6,0,0.8-0.1c0.2-0.1,0.4-0.2,0.5-0.3
				s0.2-0.2,0.3-0.4c0.1-0.2,0.1-0.3,0.1-0.5c0-0.8-0.6-1.1-1.7-1.1h-1.6L183.7,173.3L183.7,173.3z"/>
			<path id="path3078" class="st2" d="M190.8,178.6c-0.3,0-0.6-0.1-0.7-0.2c-0.1-0.1-0.1-0.3-0.1-0.5v-7.6c0-0.2,0-0.4,0.1-0.5
				c0.1-0.1,0.3-0.2,0.7-0.2h4.7c0,0.1,0,0.2,0,0.3c0,0.1,0,0.3,0,0.4c0,0.3-0.1,0.5-0.2,0.6c-0.1,0.1-0.3,0.2-0.4,0.2h-3.4v2.4h3.6
				c0,0.1,0,0.2,0,0.3s0,0.2,0,0.4c0,0.3-0.1,0.4-0.2,0.5c-0.1,0.1-0.2,0.2-0.4,0.2h-3v2.4h4.1c0,0.1,0,0.2,0,0.3s0,0.2,0,0.4
				c0,0.3-0.1,0.5-0.2,0.6c-0.1,0.1-0.3,0.2-0.4,0.2h-4.2L190.8,178.6L190.8,178.6z"/>
			<path id="path3080" class="st2" d="M200,178.7c-0.1,0-0.3,0-0.4,0c-0.1,0-0.3,0-0.3,0V171h-2.8c0-0.1,0-0.2,0-0.3
				c0-0.1,0-0.3,0-0.4c0-0.3,0.1-0.5,0.2-0.6c0.1-0.1,0.3-0.1,0.5-0.1h6.5c0,0.1,0.1,0.4,0.1,0.6c0,0.5-0.2,0.8-0.6,0.8H201v7.1
				c0,0.2-0.1,0.3-0.2,0.5C200.5,178.6,200.3,178.7,200,178.7L200,178.7z"/>
		</g>
	</g>
</g>
<text transform="matrix(1 0 0 1 -233.8485 630.7098)" style="display:none;fill:#FFFFFF;enable-background:new    ; font-family:'ArialMT'; font-size:60px;">BETFRED</text>
<rect x="-100" y="212.5" class="st5" width="298.1" height="77.5"/>
<circle class="st6" cx="-75" cy="250" r="20"/>
<circle class="st6" cx="-33.4" cy="250.1" r="20"/>
<circle class="st6" cx="8.3" cy="250.1" r="20"/>
<circle class="st6" cx="49.9" cy="250.1" r="20"/>
<circle class="st6" cx="91.5" cy="250.1" r="20"/>
<circle class="st6" cx="133.1" cy="250.1" r="20"/>
<circle class="st6" cx="174.7" cy="250.1" r="20"/>
<polygon class="st7" points="-83.6,258.3 -63.3,250.1 -83.6,242 "/>
<polygon class="st2" points="-64.8,250.1 -83,242.8 -83,257.5 "/>
<path class="st7" d="M123.6,260.4l16.9,2l0.6-5.3c0,0-9.1-1.1-10.1-1.2c0.1-0.8,0.3-2.9,0.4-3.7c0.9,0.1,5.4,0.6,5.4,0.6l0.6-5.3
	c0,0-4.5-0.5-5.4-0.6c0.1-0.7,0.3-2.4,0.4-3.1c1,0.1,9.5,1.1,9.5,1.1l0.6-5.3l-16.3-1.9L123.6,260.4z"/>
<path class="st2" d="M141.4,244.3l-9.5-1.1l-0.5,4.2l5.4,0.6l-0.5,4.2l-5.4-0.6l-0.6,4.8l10.1,1.2l-0.5,4.2l-15.8-1.9l2.5-21.6
	l15.2,1.8L141.4,244.3z"/>
<path class="st7" d="M162.9,241.8l1.2,5.2c0,0,5.8-1.3,6.7-1.6c0.2,1,4,17.2,4,17.2l6.4-1.5c0,0-3.8-16.2-4-17.2
	c0.9-0.2,6.8-1.6,6.8-1.6l-1.2-5.2L162.9,241.8z"/>
<polygon class="st2" points="175.2,262 171.2,244.8 164.5,246.3 163.5,242.2 182.3,237.9 183.3,242 176.5,243.6 180.5,260.8 "/>
<path class="st7" d="M-33.9,239l3.3,15.6c0.1,0.7,0.1,1.3-0.2,1.7c-0.3,0.4-0.9,0.8-1.7,0.9c-0.8,0.2-1.5,0.1-2-0.2
	c-0.4-0.3-0.7-0.7-0.8-1.4l-3.3-15.6l-6.8,1.4l3.2,15.1c0.5,2.3,1.5,4,3.2,5.1c1.9,1.2,4.5,1.5,7.6,0.9s5.4-2,6.6-3.9
	c1.1-1.6,1.4-3.6,0.9-5.9l-3.2-15.1L-33.9,239z"/>
<path class="st2" d="M-33.2,239.4l3.1,15.1c0.4,1.8-0.4,2.9-2.4,3.3c-1.8,0.4-3.1-0.2-3.5-2l-3.1-15.1l-5.7,1.2l3,14.5
	c1,5,5,6.6,10.1,5.5s8.1-4.1,7.1-9.1l-3-14.5L-33.2,239.4z"/>
<path class="st7" d="M-2.7,260.6l6.3,0.9c0,0,1.3-9.4,1.8-12.9c1,3.5,3.9,13.7,3.9,13.7l6.7,0.9l3.1-22.6l-6.2-0.9
	c0,0-1.1,7.8-1.5,11.2c-0.9-3.3-3.3-11.8-3.3-11.8l-7.6-1L-2.7,260.6z"/>
<path class="st2" d="M7.5,239.5l3.9,13.9h0.1l1.8-13.1l5.1,0.7l-2.9,21.5l-5.7-0.8L5.3,246H5.2l-2,14.9l-5.2-0.7l2.9-21.5L7.5,239.5
	z"/>
<path class="st7" d="M91.9,238.4L81.5,240l3.6,22.9l10.3-1.6c4.6-0.7,7.2-3.4,7.2-7.3c0-0.5,0-1-0.1-1.5c-0.3-2.1-1.5-3.6-3.3-4.4
	c0.8-1,1.3-2.2,1.3-3.5c0-0.3,0-0.6-0.1-1c-0.3-1.8-1.1-3.1-2.3-4.1C96.5,238.4,94.4,238,91.9,238.4z M92.2,243.6
	c2-0.3,2.2,0.5,2.4,1.2c0,0.1,0,0.3,0,0.4c0,0.6-0.3,1.2-1.7,1.4c0,0-2.8,0.4-4,0.6c-0.1-0.7-0.4-2.3-0.5-3
	C89.2,244.1,92.2,243.6,92.2,243.6z M93.7,251.6c0.9-0.1,1.7-0.1,2.1,0.3c0.4,0.3,0.7,0.8,0.8,1.6c0,0.2,0,0.4,0,0.5
	c0,1.2-0.7,1.9-2.2,2.2c0,0-2.8,0.4-4,0.6c-0.1-0.8-0.6-3.7-0.7-4.5C90.5,252.1,93.7,251.6,93.7,251.6z"/>
<path class="st2" d="M95.3,260.7l-9.8,1.5l-3.4-21.7l9.8-1.6c4.2-0.7,7.2,0.9,7.8,4.7c0.3,1.9-0.3,3.5-1.6,4.6
	c1.9,0.5,3.4,1.9,3.8,4.3C102.7,257.1,100,260,95.3,260.7z M92.1,243.1l-4.4,0.7l0.7,4.1l4.5-0.7c1.8-0.3,2.3-1.2,2.1-2.4
	C94.9,243.4,94,242.8,92.1,243.1z M93.6,251l-4.6,0.7l0.9,5.6l4.6-0.7c2.1-0.3,2.9-1.6,2.7-3.3C96.8,251.4,95.7,250.7,93.6,251z"/>
<g>
	<path class="st7" d="M40.6,241l1.3,4.9c0,0,2.7-0.7,3.5-0.9c0.3,1,3,11.3,3.2,12.3c-0.8,0.2-3.6,0.9-3.6,0.9l1.3,4.9l13.3-3.5
		l-1.3-4.9c0,0-2.8,0.7-3.6,0.9c-0.3-1-3-11.3-3.2-12.3c0.8-0.2,3.5-0.9,3.5-0.9l-1.3-4.9L40.6,241z"/>
	<polygon class="st2" points="54.2,242.1 53.2,238.3 41.3,241.4 42.3,245.2 45.7,244.3 49.2,257.7 45.7,258.6 46.7,262.5 
		58.8,259.3 57.8,255.4 54.2,256.4 50.7,243 	"/>
</g>
</svg>
