<?xml version="1.0" encoding="utf-8"?>
<!-- Generator: Adobe Illustrator 19.1.0, SVG Export Plug-In . SVG Version: 6.00 Build 0)  -->
<svg version="1.1"
	 id="svg2" inkscape:output_extension="org.inkscape.output.svg.inkscape" sodipodi:docname="William_Hill.svg" inkscape:version="0.46" sodipodi:version="0.32" xmlns:inkscape="http://www.inkscape.org/namespaces/inkscape" xmlns:sodipodi="http://sodipodi.sourceforge.net/DTD/sodipodi-0.dtd" xmlns:svg="http://www.w3.org/2000/svg" xmlns:rdf="http://www.w3.org/1999/02/22-rdf-syntax-ns#" xmlns:dc="http://purl.org/dc/elements/1.1/" xmlns:cc="http://creativecommons.org/ns#"
	 xmlns="http://www.w3.org/2000/svg" xmlns:xlink="http://www.w3.org/1999/xlink" x="0px" y="0px"
	 viewBox="-156.9 358.3 298.1 77.5" style="enable-background:new -156.9 358.3 298.1 77.5;" xml:space="preserve">
<style type="text/css">
	.st0{fill:none;}
	.st1{fill:#FFFFFF;}
	.st2{font-family:'Formula-Serial-BoldItalic';}
	.st3{font-size:60px;}
	.st4{fill:#FECF00;}
	.st5{fill:#1D1B17;}
</style>
<sodipodi:namedview  inkscape:current-layer="svg2" inkscape:window-y="-4" inkscape:window-x="-4" inkscape:pageshadow="2" inkscape:window-width="1024" inkscape:window-height="712" inkscape:pageopacity="0.0" borderopacity="1.0" gridtolerance="10.0" id="base" objecttolerance="10.0" guidetolerance="10.0" bordercolor="#666666" pagecolor="#ffffff" showgrid="false" inkscape:cx="165.49708" inkscape:zoom="1.05" inkscape:cy="22.372804">
	</sodipodi:namedview>
<defs>
	
	
		<inkscape:perspective  inkscape:persp3d-origin="149 : 28 : 1" id="perspective39" sodipodi:type="inkscape:persp3d" inkscape:vp_x="0 : 42 : 1" inkscape:vp_z="298 : 42 : 1" inkscape:vp_y="0 : 1000 : 0">
		</inkscape:perspective>
</defs>
<rect x="-156.9" y="358.3" class="st0" width="298.1" height="77.5"/>
<g id="layer1" transform="translate(-211.1228,-468.01584)" inkscape:label="Layer 1" inkscape:groupmode="layer">
	<g id="g3082" transform="matrix(1.0071874,0,0,1.0071874,-14.314034,63.974813)">
		<g id="g3397" transform="matrix(0.16733792,0,0,0.16733792,215.04627,324.41957)">
			<path id="path3237" sodipodi:nodetypes="ccccccccccccccc" class="st1" d="M-752.3,2933.5c0,0-1.4-7-1.4-14
				c0-26.5,9.8-40.5,37.7-40.5c20.9,0,40.5,2.8,64.2,2.8c19.5,0,30.7-4.2,30.7-15.4c0-34.9-138.2,0-138.2-92.1
				c0-58.7,50.2-74,110.3-74c26.5,0,75.4,5.6,75.4,5.6s1.4,4.2,1.4,12.6c0,33.5-14,40.5-34.9,40.5c-25.1,0-34.9-1.4-54.4-1.4
				c-12.6,0-36.3,1.4-36.3,14c0,30.7,139.6,1.4,139.6,93.5c0,48.8-32.1,74-111.7,74C-721.5,2939.1-752.3,2933.5-752.3,2933.5z"/>
			<path id="path3239" sodipodi:nodetypes="ccccccsc" class="st1" d="M-517.8,2939.1c-11.2,0-16.7-1.4-16.7-1.4v-270.8
				c0-36.3,14-47.5,48.8-47.5c9.8,0,14,1.4,14,1.4v287.5c0,30.7-27.9,30.7-41.9,30.7L-517.8,2939.1L-517.8,2939.1z"/>
			<path id="path3241" sodipodi:nodetypes="cccccccccccccccccc" class="st1" d="M-314,2933.5c0,0-14,7-34.9,7
				c-24.9,0.2-39.1-8.4-51.6-26.5l-63.4-99.8l82.9-91.4c14-15.4,32.1-22.3,55.8-22.3c19.5,0,27.9,4.2,27.9,4.2l79.6,131.2
				l46.1-106.1c7-16.7,22.3-27.9,46.1-27.9c16.7,0,27.9,5.6,27.9,5.6l-128.4,284.7c-5.6,12.6-14,27.9-43.3,27.9
				c-22.3,0-31.3-6.1-31.3-6.1L-247,2900l-88.6-138.6l-53.7,57.6L-314,2933.5z"/>
		</g>
		<g id="flowRoot3067" transform="matrix(4.5741581,0,0,4.5741581,-691.52168,209.88119)">
			<path id="path3076" class="st1" d="M204.5,132.5c-0.3,0-0.6-0.1-0.7-0.2c-0.1-0.1-0.1-0.3-0.1-0.5v-7.6c0-0.2,0-0.4,0.1-0.5
				c0.1-0.1,0.3-0.2,0.7-0.2h2.3c0.6,0,1.1,0.1,1.5,0.2c0.4,0.1,0.8,0.3,1,0.5c0.3,0.2,0.5,0.5,0.6,0.7c0.1,0.3,0.2,0.6,0.2,0.9
				c0,0.5-0.1,0.9-0.4,1.2c-0.3,0.4-0.6,0.6-1.1,0.8c0.6,0.1,1.1,0.4,1.4,0.8c0.3,0.4,0.5,0.8,0.5,1.3c0,0.8-0.3,1.5-0.9,1.9
				c-0.6,0.4-1.5,0.7-2.7,0.7H204.5z M205.2,131.1h1.5c0.7,0,1.3-0.1,1.6-0.3c0.3-0.2,0.5-0.5,0.5-1c0-0.2,0-0.3-0.1-0.5
				c-0.1-0.2-0.2-0.3-0.3-0.4c-0.1-0.1-0.3-0.2-0.6-0.3c-0.3-0.1-0.6-0.1-1-0.1h-1.6L205.2,131.1z M205.2,127.2h1.5
				c0.3,0,0.6,0,0.8-0.1c0.2-0.1,0.4-0.2,0.5-0.3c0.1-0.1,0.2-0.2,0.3-0.4c0.1-0.2,0.1-0.3,0.1-0.5c0-0.8-0.6-1.1-1.7-1.1h-1.6
				V127.2z"/>
			<path id="path3078" class="st1" d="M212.3,132.5c-0.3,0-0.6-0.1-0.7-0.2c-0.1-0.1-0.1-0.3-0.1-0.5v-7.6c0-0.2,0-0.4,0.1-0.5
				c0.1-0.1,0.3-0.2,0.7-0.2h4.7c0,0.1,0,0.2,0,0.3c0,0.1,0,0.3,0,0.4c0,0.3-0.1,0.5-0.2,0.6c-0.1,0.1-0.3,0.2-0.4,0.2H213v2.4h3.6
				c0,0.1,0,0.2,0,0.3c0,0.1,0,0.2,0,0.4c0,0.3-0.1,0.4-0.2,0.5c-0.1,0.1-0.2,0.2-0.4,0.2H213v2.4h4.1c0,0.1,0,0.2,0,0.3
				c0,0.1,0,0.2,0,0.4c0,0.3-0.1,0.5-0.2,0.6c-0.1,0.1-0.3,0.2-0.4,0.2H212.3z"/>
			<path id="path3080" class="st1" d="M221.5,132.6c-0.1,0-0.3,0-0.4,0c-0.1,0-0.3,0-0.3,0v-7.7h-2.8c0-0.1,0-0.2,0-0.3
				c0-0.1,0-0.3,0-0.4c0-0.3,0.1-0.5,0.2-0.6c0.1-0.1,0.3-0.1,0.5-0.1h6.5c0,0.1,0.1,0.4,0.1,0.6c0,0.5-0.2,0.8-0.6,0.8h-2.2v7.1
				c0,0.2-0.1,0.3-0.2,0.5C222,132.5,221.8,132.6,221.5,132.6L221.5,132.6z"/>
		</g>
	</g>
</g>
<rect x="-148.5" y="374.8" class="st0" width="282.5" height="67.2"/>
<text transform="matrix(1 0 0 1 -134.7485 418.0098)" class="st1 st2 st3">BETFRED</text>
<rect x="-156.9" y="358.3" class="st4" width="298.1" height="77.5"/>
<path id="path14" class="st5" d="M-109.3,399.8c0-8.2,5.2-8.3,12.3-8.3h0.8c6.9,0,10.7,1.2,10.7,9.1v5.5c0,6.6-1.7,9.5-10.9,9.5
	h-1.8c-8.7,0-11.1-2.4-11.1-9C-109.3,406.5-109.3,399.8-109.3,399.8z M-109.3,417.4h0.1c2.2,2.9,6.2,4.3,11.1,4.3h2.5
	c10.3,0,17.8-2.6,17.8-14.4v-7.2c0-10.9-4.8-14.8-17.4-14.8h-3.9c-5.5,0-8.6,1.9-10,3.9h-0.1v-17.5h-7.7v49h7.7L-109.3,417.4"/>
<path id="path16" class="st5" d="M15.7,386.1H5.3V383c0-3,2-5.4,6.2-5.4l7.7,0v-5.9l-10.2,0c-6.2,0-11.4,3.2-11.4,11.3v3.1h-4.2v6.2
	h4.2v29.4h7.7v-29.4h10.4V386.1"/>
<path id="path18" class="st5" d="M-28.9,410.4c0,8.1,5.2,11.4,11.4,11.4h9.6v-6.2l-7.7,0c-4.2,0-5.5-2.1-5.5-5.1v-18.1h10.4v-6.2
	h-10.4v-14.5h-7.7v14.5H-33v6.2h4.2L-28.9,410.4"/>
<path id="path20" class="st5" d="M59.9,379.5h7.7v-7.8l-7.7,0V379.5"/>
<path id="path22" class="st5" d="M59.9,421.7h7.7v-36.5h-7.7L59.9,421.7"/>
<path id="path24" class="st5" d="M-66.2,399.2c0-7,3.3-7.7,11.2-7.7l1.6,0c9,0,10.1,2.3,10.1,6.9l0,2l-22.9,0L-66.2,399.2
	L-66.2,399.2z M-57.8,421.7h6.9c9.3,0,13.6-3,14.7-8.2l-6.9-2.1c-1.1,3.2-3.9,4-9.9,4h-1.8c-9.9,0-11.5-1.2-11.5-9l0,0h30.6v-6.7
	c0-12.2-6.3-14.5-16.5-14.5h-3.8c-8,0-17.7,1.4-17.7,13.8v8.6C-73.6,419.8-65.2,421.7-57.8,421.7"/>
<path id="path26" class="st5" d="M45.4,410.8c0,3.4-2.3,4.7-11.5,4.7h-2.1c-7.8,0-8.7-1.5-8.7-4.5l0-1.9c0-3.4,1.9-4.7,8.4-4.7h3.4
	c5.9,0,10.5,1.1,10.5,5L45.4,410.8L45.4,410.8z M35.8,385.3h-2.9c-10.5,0-15,3.2-15.3,8l7.4,2.4c0.3-3.3,4.1-4.3,9.9-4.3
	c8.5,0,10.5,0.5,10.5,6.7v3.3h-0.2c-1.9-2.6-4.6-3.2-11.2-3.2h-3c-9.8,0-15.6,2.5-15.6,10.2v2.2c0,6.4,2.5,11,12.7,11h7.5
	c7.4,0,8.2-1.2,9.7-3.4h0.1v3.3h7.7v-23.4C53.1,388.1,46.3,385.3,35.8,385.3"/>
<path id="path28" class="st5" d="M91.2,385.3c-3.4,0-6.9,1.3-9.1,4.8h-0.3v-4.8l-7.3,0v36.5h7.7v-21.9c0-4.4,2.5-8.3,8.5-8.3
	c4.3,0,6.3,1.2,6.8,2.4l4.9-3.3C101.2,387.2,98,385.3,91.2,385.3"/>
</svg>
